<svg width="119" height="24" viewBox="0 0 119 24" fill="none" xmlns="http://www.w3.org/2000/svg">
<path d="M15.1016 23H11.5625V15.875H3.94531V23H0.40625V6.08984H3.94531V12.957H11.5625V6.08984H15.1016V23Z" fill="#2E4EAD"/>
<path d="M29.2227 10.4375V23H25.918V20.7383H25.8477C25.2266 22.3203 23.9844 23.2344 22.0859 23.2344C19.3672 23.2344 17.5625 21.4648 17.5625 18.5352V10.4375H20.9844V17.8203C20.9844 19.4961 21.8164 20.3867 23.3281 20.3867C24.8516 20.3867 25.8008 19.2969 25.8008 17.6328V10.4375H29.2227Z" fill="#2E4EAD"/>
<path d="M35 15.4766L39.2656 10.4375H43.1445L38.3516 15.8281L43.3789 23H39.4414L35.8438 17.8906L34.9531 18.8516V23H31.5312V6.08984H34.9531V15.4766H35Z" fill="#2E4EAD"/>
<path d="M55.9648 10.4375V23H52.6602V20.7383H52.5898C51.9688 22.3203 50.7266 23.2344 48.8281 23.2344C46.1094 23.2344 44.3047 21.4648 44.3047 18.5352V10.4375H47.7266V17.8203C47.7266 19.4961 48.5586 20.3867 50.0703 20.3867C51.5938 20.3867 52.543 19.2969 52.543 17.6328V10.4375H55.9648Z" fill="#2E4EAD"/>
<path d="M61.7422 15.4766L66.0078 10.4375H69.8867L65.0938 15.8281L70.1211 23H66.1836L62.5859 17.8906L61.6953 18.8516V23H58.2734V6.08984H61.6953V15.4766H61.7422Z" fill="#2E4EAD"/>
<path d="M70.6602 14.1289C70.6602 11.7383 72.7344 10.168 75.957 10.168C79.1094 10.168 81.1602 11.7617 81.207 14.1992H78.0547C77.9844 13.1914 77.1758 12.5703 75.9102 12.5703C74.7266 12.5703 73.9531 13.1094 73.9531 13.918C73.9531 14.5391 74.4922 14.9609 75.5938 15.2188L77.9961 15.7344C80.5156 16.2969 81.5352 17.293 81.5352 19.168C81.5352 21.6406 79.2617 23.2695 75.9453 23.2695C72.5938 23.2695 70.5312 21.6523 70.3438 19.2031H73.6836C73.8477 20.2578 74.6797 20.8672 76.0391 20.8672C77.3398 20.8672 78.125 20.3516 78.125 19.5312C78.125 18.8984 77.7031 18.5469 76.5781 18.2773L74.2578 17.7617C71.8789 17.2227 70.6602 15.9805 70.6602 14.1289Z" fill="#2E4EAD"/>
<path d="M88.0977 20.7266C89.5859 20.7266 90.8164 19.7539 90.8164 18.3945V17.4805L88.168 17.6445C86.8906 17.7383 86.1641 18.3125 86.1641 19.2031C86.1641 20.1406 86.9375 20.7266 88.0977 20.7266ZM86.9727 23.1992C84.582 23.1992 82.7656 21.6523 82.7656 19.3906C82.7656 17.1055 84.5234 15.7812 87.6523 15.5938L90.8164 15.4062V14.5742C90.8164 13.4023 89.9961 12.7227 88.707 12.7227C87.4297 12.7227 86.6211 13.3555 86.457 14.2812H83.3281C83.457 11.8438 85.5312 10.168 88.8594 10.168C92.082 10.168 94.1797 11.832 94.1797 14.3633V23H90.875V21.0781H90.8047C90.1016 22.4141 88.543 23.1992 86.9727 23.1992Z" fill="#2E4EAD"/>
<path d="M96.4766 23V6.08984H99.8984V23H96.4766Z" fill="#2E4EAD"/>
<path d="M118 13.8086H107.844V12.1094H118V13.8086ZM106.135 12.959C106.135 13.5352 105.656 14.0137 105.08 14.0137C104.494 14.0137 104.025 13.5352 104.025 12.959C104.025 12.373 104.494 11.8945 105.08 11.8945C105.656 11.8945 106.135 12.373 106.135 12.959Z" fill="#2E4EAD"/>
<path d="M118.176 5.60547C118.176 8.41797 116.154 10.3125 112.922 10.3125C109.68 10.3125 107.668 8.41797 107.668 5.60547C107.668 2.80273 109.68 0.908203 112.922 0.908203C116.154 0.908203 118.176 2.80273 118.176 5.60547ZM116.682 5.60547C116.682 3.80859 115.314 2.63672 112.922 2.63672C110.529 2.63672 109.162 3.80859 109.162 5.60547C109.162 7.40234 110.529 8.58398 112.922 8.58398C115.314 8.58398 116.682 7.40234 116.682 5.60547Z" fill="#2E4EAD"/>
</svg>
